<mxfile host="app.diagrams.net" modified="2024-02-19T04:03:16.447Z" agent="Mozilla/5.0 (Macintosh; Intel Mac OS X 10_15_7) AppleWebKit/537.36 (KHTML, like Gecko) Chrome/120.0.0.0 Safari/537.36" version="22.1.18" etag="lMzWsIjGDpo-qha5rDBT" type="github">
  <diagram name="Page-1" id="tLu8o4vSnMRMpAE8PNF4">
    <mxGraphModel>
      <root>
        <mxCell id="0" />
        <mxCell id="1" parent="0" />
      </root>
    </mxGraphModel>
  </diagram>
</mxfile>
